<svg xmlns="http://www.w3.org/2000/svg" width="144" height="147" viewBox="0 0 144 147">
  <g fill="none" fill-rule="evenodd">
    <rect width="144" height="147" fill="none"/>
    <path fill="#7CF8E9" d="M101.424213,65.9277108 C103.786742,69.5060241 106.900985,75.4698795 109.048739,79.8072289 C103.464579,83.2771084 95.3031144,87.7228916 88.53769,90 C87.6785885,87.0722892 85.2086716,80.7831325 83.3830809,77.0963855 C77.0472073,79.6987952 69.6374568,81.3253012 62.7646447,81.2168675 C43.7570238,80.8915663 33.1256427,66.3614458 35.2733964,46.8433735 C39.2467409,15.5060241 63.4089709,0.325301205 85.3160593,0 C103.464579,1.08433735 113.773797,10.626506 114.847674,25.8072289 C115.921551,40.4457831 111.30388,55.9518072 101.424213,65.9277108 Z M78.9801857,25.373494 C68.885743,25.4819277 59.3282387,33.8313253 56.6435465,44.3493976 C53.5293035,57.686747 62.5498693,66.1445783 75.1142289,61.9156627 C72.6443121,58.2289157 69.9596199,54.7590361 66.8453769,51.2891566 C72.4295367,48.3614458 74.040352,47.1686747 80.1614503,44.4578313 C83.0609179,47.060241 85.9603855,49.5542169 88.53769,52.1566265 C90.3632807,49.8795181 91.5445453,47.2771084 92.1888714,44.3493976 C94.7661759,34.0481928 88.8598531,25.373494 78.9801857,25.373494 Z"/>
    <path fill="#FFF" d="M24.2595215 104.566406C24.2595215 103.165032 24.4133285 101.886155 24.7209473 100.729736 25.028566 99.5733178 25.4871389 98.5821168 26.0966797 97.7561035 26.7062205 96.9300903 27.4581661 96.2920758 28.3525391 95.842041 29.246912 95.3920062 30.2808372 95.1669922 31.4543457 95.1669922 32.4683482 95.1669922 33.345618 95.3720683 34.0861816 95.7822266 34.8267452 96.1923849 35.4647597 96.7620406 36.0002441 97.4912109L36.4104004 95.5087891 41.4006348 95.5087891 41.4006348 119.109375 35.6242676 119.109375 35.6242676 112.461914C35.1001764 113.054365 34.4963413 113.515786 33.8127441 113.846191 33.129147 114.176597 32.3316289 114.341797 31.420166 114.341797 30.2580508 114.341797 29.2298222 114.102541 28.3354492 113.624023 27.4410763 113.145505 26.6919789 112.487553 26.0881348 111.650146 25.4842906 110.81274 25.028566 109.818691 24.7209473 108.667969 24.4133285 107.517247 24.2595215 106.269701 24.2595215 104.925293L24.2595215 104.566406zM30.0187988 104.925293C30.0187988 105.620283 30.0643713 106.269691 30.1555176 106.873535 30.2466639 107.477379 30.4033192 108.004311 30.6254883 108.454346 30.8476574 108.904381 31.1438784 109.257567 31.5141602 109.513916 31.884442 109.770265 32.3430148 109.898438 32.8898926 109.898438 33.5962763 109.898438 34.1687804 109.767417 34.6074219 109.505371 35.0460634 109.243326 35.3850086 108.873049 35.6242676 108.394531L35.6242676 101.080078C35.3850086 100.590167 35.0489117 100.222739 34.6159668 99.9777832 34.1830219 99.7328276 33.6190627 99.6103516 32.9240723 99.6103516 32.3885878 99.6103516 31.9357115 99.7328276 31.5654297 99.9777832 31.1951479 100.222739 30.8960786 100.567381 30.6682129 101.011719 30.4403472 101.456057 30.275147 101.98014 30.1726074 102.583984 30.0700678 103.187829 30.0187988 103.848629 30.0187988 104.566406L30.0187988 104.925293zM55.6706543 112.000488C55.0895967 112.741052 54.3889201 113.316404 53.5686035 113.726562 52.7482869 114.136721 51.8026583 114.341797 50.7316895 114.341797 49.8202266 114.341797 48.9856809 114.213624 48.2280273 113.957275 47.4703738 113.700926 46.8209662 113.296471 46.2797852 112.743896 45.7386041 112.191322 45.3170588 111.479252 45.0151367 110.607666 44.7132146 109.73608 44.5622559 108.690761 44.5622559 107.47168L44.5622559 95.5087891 50.3215332 95.5087891 50.3215332 107.505859C50.3215332 108.326176 50.5180644 108.930011 50.9111328 109.317383 51.3042012 109.704755 51.8767052 109.898438 52.6286621 109.898438 53.3464391 109.898438 53.9303363 109.773113 54.3803711 109.522461 54.8304059 109.271809 55.1864407 108.924319 55.4484863 108.47998L55.4484863 95.5087891 61.2419434 95.5087891 61.2419434 114 55.8415527 114 55.6706543 112.000488zM73.3415527 114.341797C71.837639 114.341797 70.4932514 114.102541 69.3083496 113.624023 68.1234479 113.145505 67.1265503 112.496098 66.317627 111.675781 65.5087036 110.855465 64.8906271 109.90414 64.4633789 108.821777 64.0361307 107.739415 63.8225098 106.588711 63.8225098 105.369629L63.8225098 104.720215C63.8225098 103.375807 64.0076479 102.119716 64.3779297 100.951904 64.7482115 99.7840925 65.3064741 98.7729535 66.0527344 97.918457 66.7989946 97.0639606 67.7275335 96.3917668 68.8383789 95.9018555 69.9492243 95.4119442 71.2451912 95.1669922 72.7263184 95.1669922 74.0365463 95.1669922 75.2128854 95.3777648 76.2553711 95.7993164 77.2978568 96.220868 78.1808232 96.8247031 78.9042969 97.6108398 79.6277705 98.3969766 80.1803366 99.3483017 80.5620117 100.464844 80.9436868 101.581386 81.1345215 102.834628 81.1345215 104.224609L81.1345215 106.565918 69.6843262 106.565918C69.8894053 107.602707 70.3394334 108.417315 71.0344238 109.009766 71.7294143 109.602217 72.6294704 109.898438 73.7346191 109.898438 74.5207559 109.898438 75.2926394 109.750327 76.050293 109.454102 76.8079465 109.157876 77.4602023 108.667972 78.0070801 107.984375L80.638916 111.094727C80.3426906 111.504885 79.9638695 111.903644 79.5024414 112.291016 79.0410133 112.678387 78.5026886 113.023029 77.8874512 113.324951 77.2722137 113.626873 76.5829302 113.871825 75.8195801 114.059814 75.0562299 114.247804 74.2302291 114.341797 73.3415527 114.341797zM72.6921387 99.6103516C72.2022274 99.6103516 71.7806821 99.6957999 71.4274902 99.8666992 71.0742984 100.037599 70.7809256 100.271157 70.5473633 100.567383 70.3138009 100.863608 70.1286628 101.216795 69.9919434 101.626953 69.8552239 102.037111 69.7526859 102.481443 69.6843262 102.959961L75.494873 102.959961 75.494873 102.515625C75.5176596 101.592769 75.2841008 100.877851 74.7941895 100.37085 74.3042781 99.8638484 73.6036016 99.6103516 72.6921387 99.6103516zM94.4645996 112.000488C93.883542 112.741052 93.1828654 113.316404 92.3625488 113.726562 91.5422322 114.136721 90.5966037 114.341797 89.5256348 114.341797 88.6141719 114.341797 87.7796262 114.213624 87.0219727 113.957275 86.2643191 113.700926 85.6149116 113.296471 85.0737305 112.743896 84.5325494 112.191322 84.1110041 111.479252 83.809082 110.607666 83.5071599 109.73608 83.3562012 108.690761 83.3562012 107.47168L83.3562012 95.5087891 89.1154785 95.5087891 89.1154785 107.505859C89.1154785 108.326176 89.3120098 108.930011 89.7050781 109.317383 90.0981465 109.704755 90.6706505 109.898438 91.4226074 109.898438 92.1403844 109.898438 92.7242816 109.773113 93.1743164 109.522461 93.6243512 109.271809 93.9803861 108.924319 94.2424316 108.47998L94.2424316 95.5087891 100.035889 95.5087891 100.035889 114 94.635498 114 94.4645996 112.000488zM112.135498 114.341797C110.631584 114.341797 109.287197 114.102541 108.102295 113.624023 106.917393 113.145505 105.920496 112.496098 105.111572 111.675781 104.302649 110.855465 103.684572 109.90414 103.257324 108.821777 102.830076 107.739415 102.616455 106.588711 102.616455 105.369629L102.616455 104.720215C102.616455 103.375807 102.801593 102.119716 103.171875 100.951904 103.542157 99.7840925 104.100419 98.7729535 104.84668 97.918457 105.59294 97.0639606 106.521479 96.3917668 107.632324 95.9018555 108.74317 95.4119442 110.039136 95.1669922 111.520264 95.1669922 112.830492 95.1669922 114.006831 95.3777648 115.049316 95.7993164 116.091802 96.220868 116.974769 96.8247031 117.698242 97.6108398 118.421716 98.3969766 118.974282 99.3483017 119.355957 100.464844 119.737632 101.581386 119.928467 102.834628 119.928467 104.224609L119.928467 106.565918 108.478271 106.565918C108.683351 107.602707 109.133379 108.417315 109.828369 109.009766 110.52336 109.602217 111.423416 109.898438 112.528564 109.898438 113.314701 109.898438 114.086585 109.750327 114.844238 109.454102 115.601892 109.157876 116.254148 108.667972 116.801025 107.984375L119.432861 111.094727C119.136636 111.504885 118.757815 111.903644 118.296387 112.291016 117.834959 112.678387 117.296634 113.023029 116.681396 113.324951 116.066159 113.626873 115.376876 113.871825 114.613525 114.059814 113.850175 114.247804 113.024174 114.341797 112.135498 114.341797zM111.486084 99.6103516C110.996173 99.6103516 110.574627 99.6957999 110.221436 99.8666992 109.868244 100.037599 109.574871 100.271157 109.341309 100.567383 109.107746 100.863608 108.922608 101.216795 108.785889 101.626953 108.649169 102.037111 108.546631 102.481443 108.478271 102.959961L114.288818 102.959961 114.288818 102.515625C114.311605 101.592769 114.078046 100.877851 113.588135 100.37085 113.098223 99.8638484 112.397547 99.6103516 111.486084 99.6103516zM46.9863281 126.601562L46.1953125 127.414551 46.1953125 130 44.4155273 130 44.4155273 118.75 46.1953125 118.75 46.1953125 125.239258 46.7519531 124.543457 48.9418945 122.075195 51.0805664 122.075195 48.1362305 125.378418 51.3955078 130 49.3374023 130 46.9863281 126.601562zM54.3347656 130L52.5549805 130 52.5549805 122.075195 54.3347656 122.075195 54.3347656 130zM52.4451172 120.01709C52.4451172 119.743651 52.5317862 119.516602 52.705127 119.335938 52.8784677 119.155273 53.1262679 119.064941 53.4485352 119.064941 53.7708024 119.064941 54.0198233 119.155273 54.1956055 119.335938 54.3713876 119.516602 54.4592773 119.743651 54.4592773 120.01709 54.4592773 120.285646 54.3713876 120.509032 54.1956055 120.687256 54.0198233 120.865479 53.7708024 120.95459 53.4485352 120.95459 53.1262679 120.95459 52.8784677 120.865479 52.705127 120.687256 52.5317862 120.509032 52.4451172 120.285646 52.4451172 120.01709zM58.1236328 122.075195L58.1749023 122.990723C58.4532241 122.653807 58.7876934 122.392579 59.1783203 122.207031 59.5689473 122.021483 60.0035132 121.928711 60.4820313 121.928711 60.8628925 121.928711 61.2083481 121.981201 61.5184082 122.086182 61.8284684 122.191163 62.0933583 122.360839 62.3130859 122.595215 62.5328136 122.829591 62.7024896 123.134764 62.8221191 123.510742 62.9417487 123.886721 63.0015625 124.343259 63.0015625 124.880371L63.0015625 130 61.2217773 130 61.2217773 124.865723C61.2217773 124.592284 61.1912601 124.361573 61.1302246 124.173584 61.0691892 123.985595 60.9800787 123.833008 60.8628906 123.71582 60.7457025 123.598632 60.6004403 123.514405 60.4270996 123.463135 60.2537589 123.411865 60.0547863 123.38623 59.8301758 123.38623 59.463963 123.38623 59.1453627 123.47412 58.8743652 123.649902 58.6033678 123.825684 58.3873055 124.062499 58.2261719 124.360352L58.2261719 130 56.4463867 130 56.4463867 122.075195 58.1236328 122.075195zM64.6810547 125.979004C64.6810547 125.378415 64.7530755 124.829104 64.8971191 124.331055 65.0411628 123.833005 65.2486803 123.405764 65.5196777 123.049316 65.7906752 122.692869 66.119041 122.416993 66.5047852 122.22168 66.8905293 122.026366 67.3250952 121.928711 67.8084961 121.928711 68.2479514 121.928711 68.6349104 122.004394 68.9693848 122.155762 69.3038591 122.30713 69.5956042 122.524413 69.8446289 122.807617L69.8446289 118.75 71.6244141 118.75 71.6244141 130 70.0130859 130 69.9251953 129.179688C69.6712878 129.487306 69.3697771 129.725341 69.0206543 129.893799 68.6715315 130.062257 68.2626 130.146484 67.7938477 130.146484 67.3153296 130.146484 66.8844258 130.045167 66.5011231 129.842529 66.1178204 129.639892 65.7918959 129.360353 65.5233399 129.003906 65.2547838 128.647459 65.0472664 128.223879 64.9007813 127.733154 64.7542962 127.242429 64.6810547 126.708987 64.6810547 126.132812L64.6810547 125.979004zM66.4608399 126.132812C66.4608399 126.484377 66.4937985 126.815184 66.5597168 127.125244 66.6256351 127.435304 66.7306145 127.707518 66.8746582 127.941895 67.0187019 128.176271 67.2030262 128.360595 67.4276367 128.494873 67.6522472 128.629151 67.925682 128.696289 68.2479492 128.696289 68.6483419 128.696289 68.9767077 128.607179 69.2330566 128.428955 69.4894056 128.250732 69.693261 128.015138 69.8446289 127.722168L69.8446289 124.338379C69.693261 124.045409 69.4881849 123.813477 69.2293945 123.642578 68.9706042 123.471679 68.6483418 123.38623 68.2625977 123.38623 67.9403304 123.38623 67.665675 123.454589 67.4386231 123.591309 67.2115711 123.728028 67.0260261 123.913573 66.8819824 124.147949 66.7379387 124.382325 66.6317386 124.656981 66.5633789 124.971924 66.4950192 125.286867 66.4608399 125.622557 66.4608399 125.979004L66.4608399 126.132812zM77.1710938 130.146484C76.5851533 130.146484 76.0578149 130.048829 75.5890625 129.853516 75.1203102 129.658202 74.7223649 129.38965 74.3952149 129.047852 74.0680648 128.706053 73.8166025 128.300784 73.6408203 127.832031 73.4650382 127.363279 73.3771484 126.857913 73.3771484 126.315918L73.3771484 126.022949C73.3771484 125.397946 73.469921 124.832766 73.6554688 124.327393 73.8410166 123.822019 74.0949203 123.392336 74.4171875 123.03833 74.7394547 122.684324 75.1190896 122.41089 75.5561035 122.218018 75.9931174 122.025146 76.4630834 121.928711 76.9660156 121.928711 77.5421904 121.928711 78.0426737 122.025146 78.4674805 122.218018 78.8922873 122.41089 79.2438463 122.680662 79.522168 123.027344 79.8004897 123.374025 80.0080071 123.786619 80.1447266 124.265137 80.281446 124.743655 80.3498047 125.268552 80.3498047 125.839844L80.3498047 126.601562 75.171582 126.601562C75.1959962 126.909181 75.2606928 127.192382 75.3656738 127.451172 75.4706548 127.709962 75.6134757 127.933349 75.7941406 128.121338 75.9748056 128.309327 76.1884265 128.457031 76.4350098 128.564453 76.681593 128.671876 76.9611313 128.725586 77.2736328 128.725586 77.7130881 128.725586 78.0951644 128.637696 78.4198731 128.461914 78.7445817 128.286132 79.0265613 128.044435 79.2658203 127.736816L80.225293 128.652344C80.0983392 128.842774 79.9408701 129.027099 79.7528809 129.205322 79.5648917 129.383546 79.3451673 129.542236 79.0937012 129.681396 78.8422351 129.820557 78.5578141 129.932861 78.2404297 130.018311 77.9230453 130.10376 77.5666036 130.146484 77.1710938 130.146484zM76.9586914 123.356934C76.4704077 123.356934 76.0761246 123.52783 75.7758301 123.869629 75.4755356 124.211427 75.2838871 124.687497 75.2008789 125.297852L78.5919922 125.297852 78.5919922 125.166016C78.5773437 124.931639 78.5395023 124.705812 78.4784668 124.488525 78.4174313 124.271239 78.3234381 124.07837 78.1964844 123.909912 78.0695306 123.741454 77.9047374 123.607178 77.7020996 123.50708 77.4994619 123.406982 77.2516616 123.356934 76.9586914 123.356934zM86.0795899 123.701172C85.9624018 123.681641 85.8439948 123.666992 85.7243652 123.657227 85.6047357 123.647461 85.481446 123.642578 85.3544922 123.642578 84.9248026 123.642578 84.575685 123.725585 84.3071289 123.891602 84.0385729 124.057618 83.8383796 124.287108 83.706543 124.580078L83.706543 130 81.9267578 130 81.9267578 122.075195 83.6259766 122.075195 83.6699219 122.961426C83.8701182 122.639159 84.1179185 122.386476 84.4133301 122.203369 84.7087417 122.020263 85.0566386 121.928711 85.4570313 121.928711 85.5595708 121.928711 85.6755365 121.939697 85.8049317 121.96167 85.9343268 121.983643 86.02832 122.006836 86.0869141 122.03125L86.0795899 123.701172zM86.953418 125.979004C86.953418 125.378415 87.0266594 124.829104 87.1731445 124.331055 87.3196297 123.833005 87.5308092 123.405764 87.8066895 123.049316 88.0825698 122.692869 88.4158184 122.416993 88.8064453 122.22168 89.1970723 122.026366 89.636521 121.928711 90.1248047 121.928711 90.6033227 121.928711 91.0159163 122.010497 91.3625977 122.174072 91.7092791 122.337647 92.0071277 122.570799 92.2561524 122.873535L92.3367188 122.075195 93.9407227 122.075195 93.9407227 129.780273C93.9407227 130.312503 93.8528329 130.786131 93.6770508 131.201172 93.5012687 131.616213 93.2559098 131.965331 92.9409668 132.248535 92.6260238 132.53174 92.2476096 132.747802 91.8057129 132.896729 91.3638162 133.045655 90.8792019 133.120117 90.3518555 133.120117 90.1321278 133.120117 89.8879896 133.096924 89.6194336 133.050537 89.3508776 133.00415 89.0798842 132.928467 88.8064453 132.823486 88.5330065 132.718505 88.2717786 132.583009 88.0227539 132.416992 87.7737292 132.250976 87.561329 132.048341 87.3855469 131.809082L88.227832 130.739746C88.5208023 131.086428 88.8394026 131.335448 89.1836426 131.486816 89.5278826 131.638184 89.8831037 131.713867 90.2493164 131.713867 90.8401397 131.713867 91.3064436 131.553957 91.6482422 131.234131 91.9900408 130.914305 92.1609375 130.444339 92.1609375 129.824219L92.1609375 129.289551C91.9119128 129.567872 91.618947 129.780273 91.2820313 129.926758 90.9451155 130.073243 90.5544944 130.146484 90.1101563 130.146484 89.6267554 130.146484 89.1909688 130.045167 88.8027832 129.842529 88.4145977 129.639892 88.0825698 129.360353 87.8066895 129.003906 87.5308092 128.647459 87.3196297 128.223879 87.1731445 127.733154 87.0266594 127.242429 86.953418 126.708987 86.953418 126.132812L86.953418 125.979004zM88.7258789 126.132812C88.7258789 126.484377 88.761279 126.815184 88.8320801 127.125244 88.9028812 127.435304 89.0139641 127.707518 89.165332 127.941895 89.3167 128.176271 89.5071278 128.360595 89.7366211 128.494873 89.9661144 128.629151 90.2419906 128.696289 90.5642578 128.696289 90.9646505 128.696289 91.2917956 128.612061 91.5457031 128.443604 91.7996107 128.275146 92.0046867 128.051759 92.1609375 127.773438L92.1609375 124.287109C92.0046867 124.008788 91.79839 123.789063 91.542041 123.62793 91.2856921 123.466796 90.9646504 123.38623 90.5789063 123.38623 90.256639 123.38623 89.9783215 123.454589 89.7439453 123.591309 89.5095692 123.728028 89.3179207 123.913573 89.1689942 124.147949 89.0200676 124.382325 88.9089848 124.656981 88.8357422 124.971924 88.7624997 125.286867 88.7258789 125.622557 88.7258789 125.979004L88.7258789 126.132812zM100.703223 130C100.654394 129.907226 100.614112 129.797364 100.582373 129.67041 100.550635 129.543456 100.522559 129.406739 100.498145 129.260254 100.380956 129.382325 100.250343 129.49707 100.106299 129.604492 99.9622552 129.711915 99.8035653 129.805908 99.6302246 129.886475 99.4568839 129.967041 99.2688975 130.030517 99.0662598 130.076904 98.8636221 130.123291 98.6475598 130.146484 98.4180664 130.146484 98.0225566 130.146484 97.6587907 130.086671 97.3267578 129.967041 96.9947249 129.847412 96.7103039 129.681398 96.4734863 129.468994 96.2366688 129.256591 96.0511237 129.006349 95.9168457 128.718262 95.7825677 128.430174 95.7154297 128.117677 95.7154297 127.780762 95.7154297 127.355955 95.7959953 126.979982 95.9571289 126.652832 96.1182625 126.325682 96.3526352 126.052247 96.6602539 125.83252 96.9678727 125.612792 97.3450661 125.445557 97.7918457 125.330811 98.2386253 125.216064 98.7476534 125.158691 99.3189453 125.158691L100.439551 125.158691 100.439551 124.638672C100.439551 124.228514 100.324806 123.900148 100.095313 123.653564 99.8658192 123.406981 99.5167016 123.283691 99.0479492 123.283691 98.8379873 123.283691 98.6475595 123.311767 98.4766602 123.36792 98.3057609 123.424073 98.1604987 123.499755 98.0408692 123.594971 97.9212397 123.690186 97.8284671 123.80371 97.7625488 123.935547 97.6966306 124.067383 97.6636719 124.208984 97.6636719 124.360352L95.8838867 124.360352C95.8838867 124.04785 95.9607903 123.746339 96.1145996 123.455811 96.268409 123.165282 96.4869127 122.906495 96.7701172 122.679443 97.0533217 122.452391 97.3963359 122.270508 97.7991699 122.133789 98.202004 121.99707 98.6524389 121.928711 99.1504883 121.928711 99.5948265 121.928711 100.004979 121.986083 100.380957 122.10083 100.756935 122.215577 101.081639 122.386473 101.355078 122.613525 101.628517 122.840577 101.840917 123.123778 101.992285 123.463135 102.143653 123.802492 102.219336 124.199216 102.219336 124.65332L102.219336 128.168945C102.219336 128.88184 102.319433 129.450681 102.519629 129.875488L102.519629 130 100.703223 130zM98.7476563 128.718262C98.9527354 128.718262 99.1443839 128.691407 99.3226074 128.637695 99.500831 128.583984 99.6619622 128.513184 99.8060059 128.425293 99.9500496 128.337402 100.075781 128.236085 100.183203 128.121338 100.290626 128.006591 100.376074 127.890626 100.439551 127.773438L100.439551 126.279297 99.4800781 126.279297C98.8208952 126.279297 98.3252946 126.394042 97.9932617 126.623535 97.6612288 126.853028 97.4952149 127.177732 97.4952149 127.597656 97.4952149 127.75879 97.5220701 127.907714 97.5757813 128.044434 97.6294925 128.181153 97.7100581 128.29956 97.8174805 128.399658 97.9249029 128.499756 98.0555168 128.577881 98.2093262 128.634033 98.3631356 128.690186 98.5425771 128.718262 98.7476563 128.718262zM108.43252 123.701172C108.315331 123.681641 108.196924 123.666992 108.077295 123.657227 107.957665 123.647461 107.834376 123.642578 107.707422 123.642578 107.277732 123.642578 106.928615 123.725585 106.660059 123.891602 106.391503 124.057618 106.191309 124.287108 106.059473 124.580078L106.059473 130 104.279688 130 104.279688 122.075195 105.978906 122.075195 106.022852 122.961426C106.223048 122.639159 106.470848 122.386476 106.76626 122.203369 107.061671 122.020263 107.409568 121.928711 107.809961 121.928711 107.912501 121.928711 108.028466 121.939697 108.157861 121.96167 108.287257 121.983643 108.38125 122.006836 108.439844 122.03125L108.43252 123.701172zM109.284375 125.979004C109.284375 125.378415 109.356396 124.829104 109.500439 124.331055 109.644483 123.833005 109.852001 123.405764 110.122998 123.049316 110.393996 122.692869 110.722361 122.416993 111.108105 122.22168 111.49385 122.026366 111.928416 121.928711 112.411816 121.928711 112.851272 121.928711 113.238231 122.004394 113.572705 122.155762 113.907179 122.30713 114.198925 122.524413 114.447949 122.807617L114.447949 118.75 116.227734 118.75 116.227734 130 114.616406 130 114.528516 129.179688C114.274608 129.487306 113.973097 129.725341 113.623975 129.893799 113.274852 130.062257 112.86592 130.146484 112.397168 130.146484 111.91865 130.146484 111.487746 130.045167 111.104443 129.842529 110.721141 129.639892 110.395216 129.360353 110.12666 129.003906 109.858104 128.647459 109.650587 128.223879 109.504102 127.733154 109.357616 127.242429 109.284375 126.708987 109.284375 126.132812L109.284375 125.979004zM111.06416 126.132812C111.06416 126.484377 111.097119 126.815184 111.163037 127.125244 111.228955 127.435304 111.333935 127.707518 111.477979 127.941895 111.622022 128.176271 111.806347 128.360595 112.030957 128.494873 112.255568 128.629151 112.529002 128.696289 112.85127 128.696289 113.251662 128.696289 113.580028 128.607179 113.836377 128.428955 114.092726 128.250732 114.296581 128.015138 114.447949 127.722168L114.447949 124.338379C114.296581 124.045409 114.091505 123.813477 113.832715 123.642578 113.573925 123.471679 113.251662 123.38623 112.865918 123.38623 112.543651 123.38623 112.268995 123.454589 112.041943 123.591309 111.814891 123.728028 111.629346 123.913573 111.485303 124.147949 111.341259 124.382325 111.235059 124.656981 111.166699 124.971924 111.09834 125.286867 111.06416 125.622557 111.06416 125.979004L111.06416 126.132812zM121.774414 130.146484C121.188474 130.146484 120.661135 130.048829 120.192383 129.853516 119.72363 129.658202 119.325685 129.38965 118.998535 129.047852 118.671385 128.706053 118.419923 128.300784 118.244141 127.832031 118.068359 127.363279 117.980469 126.857913 117.980469 126.315918L117.980469 126.022949C117.980469 125.397946 118.073241 124.832766 118.258789 124.327393 118.444337 123.822019 118.698241 123.392336 119.020508 123.03833 119.342775 122.684324 119.72241 122.41089 120.159424 122.218018 120.596438 122.025146 121.066404 121.928711 121.569336 121.928711 122.145511 121.928711 122.645994 122.025146 123.070801 122.218018 123.495608 122.41089 123.847167 122.680662 124.125488 123.027344 124.40381 123.374025 124.611327 123.786619 124.748047 124.265137 124.884766 124.743655 124.953125 125.268552 124.953125 125.839844L124.953125 126.601562 119.774902 126.601562C119.799317 126.909181 119.864013 127.192382 119.968994 127.451172 120.073975 127.709962 120.216796 127.933349 120.397461 128.121338 120.578126 128.309327 120.791747 128.457031 121.03833 128.564453 121.284913 128.671876 121.564452 128.725586 121.876953 128.725586 122.316408 128.725586 122.698485 128.637696 123.023193 128.461914 123.347902 128.286132 123.629882 128.044435 123.869141 127.736816L124.828613 128.652344C124.70166 128.842774 124.54419 129.027099 124.356201 129.205322 124.168212 129.383546 123.948488 129.542236 123.697022 129.681396 123.445555 129.820557 123.161134 129.932861 122.84375 130.018311 122.526366 130.10376 122.169924 130.146484 121.774414 130.146484zM121.562012 123.356934C121.073728 123.356934 120.679445 123.52783 120.37915 123.869629 120.078856 124.211427 119.887207 124.687497 119.804199 125.297852L123.195313 125.297852 123.195313 125.166016C123.180664 124.931639 123.142823 124.705812 123.081787 124.488525 123.020752 124.271239 122.926758 124.07837 122.799805 123.909912 122.672851 123.741454 122.508058 123.607178 122.30542 123.50708 122.102782 123.406982 121.854982 123.356934 121.562012 123.356934zM128.185352 122.075195L128.236621 122.990723C128.514943 122.653807 128.849412 122.392579 129.240039 122.207031 129.630666 122.021483 130.065232 121.928711 130.54375 121.928711 130.924611 121.928711 131.270067 121.981201 131.580127 122.086182 131.890187 122.191163 132.155077 122.360839 132.374805 122.595215 132.594532 122.829591 132.764208 123.134764 132.883838 123.510742 133.003467 123.886721 133.063281 124.343259 133.063281 124.880371L133.063281 130 131.283496 130 131.283496 124.865723C131.283496 124.592284 131.252979 124.361573 131.191943 124.173584 131.130908 123.985595 131.041797 123.833008 130.924609 123.71582 130.807421 123.598632 130.662159 123.514405 130.488818 123.463135 130.315478 123.411865 130.116505 123.38623 129.891895 123.38623 129.525682 123.38623 129.207081 123.47412 128.936084 123.649902 128.665087 123.825684 128.449024 124.062499 128.287891 124.360352L128.287891 130 126.508106 130 126.508106 122.075195 128.185352 122.075195zM47.6674805 143.725586C47.8823253 143.725586 48.0837393 143.692627 48.2717285 143.626709 48.4597177 143.560791 48.6232903 143.468018 48.7624512 143.348389 48.901612 143.228759 49.0139156 143.085938 49.0993652 142.919922 49.1848149 142.753905 49.2324218 142.573243 49.2421875 142.37793L50.9194336 142.37793C50.9047851 142.758791 50.8107919 143.117674 50.6374512 143.45459 50.4641105 143.791506 50.2321792 144.085692 49.9416504 144.337158 49.6511216 144.588624 49.3129902 144.786376 48.9272461 144.93042 48.541502 145.074464 48.1289084 145.146484 47.6894531 145.146484 47.0790985 145.146484 46.548098 145.041505 46.0964355 144.831543 45.6447731 144.621581 45.2688003 144.335939 44.9685059 143.974609 44.6682114 143.613279 44.444825 143.19092 44.2983398 142.70752 44.1518547 142.224119 44.0786133 141.711428 44.0786133 141.169434L44.0786133 140.913086C44.0786133 140.371091 44.1518547 139.858401 44.2983398 139.375 44.444825 138.891599 44.6682114 138.468019 44.9685059 138.104248 45.2688003 137.740477 45.6435524 137.453614 46.0927734 137.243652 46.5419944 137.03369 47.0717743 136.928711 47.6821289 136.928711 48.1606469 136.928711 48.5964336 137.001952 48.989502 137.148438 49.3825703 137.294923 49.719481 137.499999 50.0002441 137.763672 50.2810073 138.027345 50.5007316 138.342283 50.6594238 138.708496 50.818116 139.074709 50.9047851 139.477537 50.9194336 139.916992L49.2421875 139.916992C49.2324218 139.70703 49.1896976 139.506837 49.1140137 139.316406 49.0383297 139.125976 48.9333503 138.959962 48.7990723 138.818359 48.6647943 138.676757 48.5024424 138.564454 48.3120117 138.481445 48.1215811 138.398437 47.9067395 138.356934 47.6674805 138.356934 47.3061505 138.356934 47.008302 138.431396 46.7739258 138.580322 46.5395496 138.729249 46.3540046 138.923339 46.2172852 139.162598 46.0805657 139.401857 45.9865725 139.675291 45.9353027 139.98291 45.8840329 140.290529 45.8583984 140.600584 45.8583984 140.913086L45.8583984 141.169434C45.8583984 141.491701 45.8840329 141.805418 45.9353027 142.110596 45.9865725 142.415773 46.0805657 142.687987 46.2172852 142.927246 46.3540046 143.166505 46.5383289 143.359374 46.7702637 143.505859 47.0021984 143.652344 47.3012677 143.725586 47.6674805 143.725586zM54.2175781 137.939453C54.491017 137.622069 54.8132794 137.374268 55.184375 137.196045 55.5554706 137.017821 55.9680641 136.928711 56.422168 136.928711 56.8079121 136.928711 57.1594711 136.982421 57.4768555 137.089844 57.7942399 137.197266 58.0652333 137.369384 58.2898438 137.606201 58.5144543 137.843019 58.6877924 138.150633 58.8098633 138.529053 58.9319342 138.907473 58.9929688 139.365232 58.9929688 139.902344L58.9929688 145 57.2131836 145 57.2131836 139.887695C57.2131836 139.340818 57.0947766 138.953859 56.857959 138.726807 56.6211414 138.499755 56.2732445 138.38623 55.8142578 138.38623 55.4431622 138.38623 55.1245619 138.471679 54.8584473 138.642578 54.5923327 138.813477 54.3787117 139.045409 54.2175781 139.338379L54.2175781 145 52.437793 145 52.437793 133.75 54.2175781 133.75 54.2175781 137.939453zM65.7261719 145C65.6773435 144.907226 65.6370607 144.797364 65.6053223 144.67041 65.5735838 144.543456 65.5455079 144.406739 65.5210938 144.260254 65.4039057 144.382325 65.2732917 144.49707 65.1292481 144.604492 64.9852044 144.711915 64.8265145 144.805908 64.6531738 144.886475 64.4798331 144.967041 64.2918467 145.030517 64.089209 145.076904 63.8865713 145.123291 63.670509 145.146484 63.4410156 145.146484 63.0455058 145.146484 62.6817399 145.086671 62.349707 144.967041 62.0176741 144.847412 61.7332531 144.681398 61.4964356 144.468994 61.259618 144.256591 61.0740729 144.006349 60.9397949 143.718262 60.8055169 143.430174 60.7383789 143.117677 60.7383789 142.780762 60.7383789 142.355955 60.8189445 141.979982 60.9800781 141.652832 61.1412117 141.325682 61.3755844 141.052247 61.6832031 140.83252 61.9908219 140.612792 62.3680154 140.445557 62.8147949 140.330811 63.2615745 140.216064 63.7706026 140.158691 64.3418945 140.158691L65.4625 140.158691 65.4625 139.638672C65.4625 139.228514 65.3477551 138.900148 65.1182617 138.653564 64.8887684 138.406981 64.5396508 138.283691 64.0708984 138.283691 63.8609365 138.283691 63.6705087 138.311767 63.4996094 138.36792 63.3287101 138.424073 63.1834479 138.499755 63.0638184 138.594971 62.9441889 138.690186 62.8514164 138.80371 62.7854981 138.935547 62.7195798 139.067383 62.6866211 139.208984 62.6866211 139.360352L60.9068359 139.360352C60.9068359 139.04785 60.9837395 138.746339 61.1375488 138.455811 61.2913582 138.165282 61.5098619 137.906495 61.7930664 137.679443 62.076271 137.452391 62.4192851 137.270508 62.8221191 137.133789 63.2249532 136.99707 63.6753881 136.928711 64.1734375 136.928711 64.6177757 136.928711 65.0279278 136.986083 65.4039063 137.10083 65.7798847 137.215577 66.1045885 137.386473 66.3780273 137.613525 66.6514662 137.840577 66.8638664 138.123778 67.0152344 138.463135 67.1666023 138.802492 67.2422852 139.199216 67.2422852 139.65332L67.2422852 143.168945C67.2422852 143.88184 67.3423818 144.450681 67.5425781 144.875488L67.5425781 145 65.7261719 145zM63.7706055 143.718262C63.9756846 143.718262 64.1673331 143.691407 64.3455566 143.637695 64.5237802 143.583984 64.6849114 143.513184 64.8289551 143.425293 64.9729988 143.337402 65.0987299 143.236085 65.2061523 143.121338 65.3135748 143.006591 65.3990231 142.890626 65.4625 142.773438L65.4625 141.279297 64.5030273 141.279297C63.8438444 141.279297 63.3482439 141.394042 63.0162109 141.623535 62.684178 141.853028 62.5181641 142.177732 62.5181641 142.597656 62.5181641 142.75879 62.5450193 142.907714 62.5987305 143.044434 62.6524417 143.181153 62.7330073 143.29956 62.8404297 143.399658 62.9478521 143.499756 63.078466 143.577881 63.2322754 143.634033 63.3860848 143.690186 63.5655263 143.718262 63.7706055 143.718262zM70.9579102 137.075195L71.0091797 137.990723C71.2875014 137.653807 71.6219707 137.392579 72.0125977 137.207031 72.4032246 137.021483 72.8377906 136.928711 73.3163086 136.928711 73.6971699 136.928711 74.0426254 136.981201 74.3526856 137.086182 74.6627457 137.191163 74.9276356 137.360839 75.1473633 137.595215 75.367091 137.829591 75.536767 138.134764 75.6563965 138.510742 75.776026 138.886721 75.8358399 139.343259 75.8358399 139.880371L75.8358399 145 74.0560547 145 74.0560547 139.865723C74.0560547 139.592284 74.0255374 139.361573 73.964502 139.173584 73.9034665 138.985595 73.8143561 138.833008 73.697168 138.71582 73.5799799 138.598632 73.4347177 138.514405 73.261377 138.463135 73.0880363 138.411865 72.8890636 138.38623 72.6644531 138.38623 72.2982404 138.38623 71.97964 138.47412 71.7086426 138.649902 71.4376451 138.825684 71.2215828 139.062499 71.0604492 139.360352L71.0604492 145 69.2806641 145 69.2806641 137.075195 70.9579102 137.075195zM81.1041992 143.725586C81.3190441 143.725586 81.5204581 143.692627 81.7084473 143.626709 81.8964365 143.560791 82.0600091 143.468018 82.1991699 143.348389 82.3383308 143.228759 82.4506344 143.085938 82.536084 142.919922 82.6215336 142.753905 82.6691406 142.573243 82.6789063 142.37793L84.3561524 142.37793C84.3415038 142.758791 84.2475106 143.117674 84.0741699 143.45459 83.9008292 143.791506 83.6688979 144.085692 83.3783692 144.337158 83.0878404 144.588624 82.749709 144.786376 82.3639649 144.93042 81.9782207 145.074464 81.5656272 145.146484 81.1261719 145.146484 80.5158173 145.146484 79.9848167 145.041505 79.5331543 144.831543 79.0814919 144.621581 78.7055191 144.335939 78.4052246 143.974609 78.1049302 143.613279 77.8815437 143.19092 77.7350586 142.70752 77.5885735 142.224119 77.515332 141.711428 77.515332 141.169434L77.515332 140.913086C77.515332 140.371091 77.5885735 139.858401 77.7350586 139.375 77.8815437 138.891599 78.1049302 138.468019 78.4052246 138.104248 78.7055191 137.740477 79.0802712 137.453614 79.5294922 137.243652 79.9787132 137.03369 80.5084931 136.928711 81.1188477 136.928711 81.5973657 136.928711 82.0331523 137.001952 82.4262207 137.148438 82.8192891 137.294923 83.1561998 137.499999 83.4369629 137.763672 83.717726 138.027345 83.9374504 138.342283 84.0961426 138.708496 84.2548348 139.074709 84.3415038 139.477537 84.3561524 139.916992L82.6789063 139.916992C82.6691406 139.70703 82.6264164 139.506837 82.5507324 139.316406 82.4750485 139.125976 82.370069 138.959962 82.235791 138.818359 82.101513 138.676757 81.9391611 138.564454 81.7487305 138.481445 81.5582998 138.398437 81.3434582 138.356934 81.1041992 138.356934 80.7428693 138.356934 80.4450207 138.431396 80.2106445 138.580322 79.9762684 138.729249 79.7907234 138.923339 79.6540039 139.162598 79.5172845 139.401857 79.4232913 139.675291 79.3720215 139.98291 79.3207517 140.290529 79.2951172 140.600584 79.2951172 140.913086L79.2951172 141.169434C79.2951172 141.491701 79.3207517 141.805418 79.3720215 142.110596 79.4232913 142.415773 79.5172845 142.687987 79.6540039 142.927246 79.7907234 143.166505 79.9750477 143.359374 80.2069824 143.505859 80.4389172 143.652344 80.7379865 143.725586 81.1041992 143.725586zM89.3901367 145.146484C88.8041963 145.146484 88.2768578 145.048829 87.8081055 144.853516 87.3393531 144.658202 86.9414079 144.38965 86.6142578 144.047852 86.2871078 143.706053 86.0356454 143.300784 85.8598633 142.832031 85.6840812 142.363279 85.5961914 141.857913 85.5961914 141.315918L85.5961914 141.022949C85.5961914 140.397946 85.6889639 139.832766 85.8745117 139.327393 86.0600595 138.822019 86.3139632 138.392336 86.6362305 138.03833 86.9584977 137.684324 87.3381326 137.41089 87.7751465 137.218018 88.2121604 137.025146 88.6821264 136.928711 89.1850586 136.928711 89.7612334 136.928711 90.2617166 137.025146 90.6865235 137.218018 91.1113303 137.41089 91.4628892 137.680662 91.741211 138.027344 92.0195327 138.374025 92.2270501 138.786619 92.3637695 139.265137 92.500489 139.743655 92.5688477 140.268552 92.5688477 140.839844L92.5688477 141.601562 87.390625 141.601562C87.4150392 141.909181 87.4797358 142.192382 87.5847168 142.451172 87.6896978 142.709962 87.8325186 142.933349 88.0131836 143.121338 88.1938486 143.309327 88.4074695 143.457031 88.6540527 143.564453 88.900636 143.671876 89.1801742 143.725586 89.4926758 143.725586 89.9321311 143.725586 90.3142074 143.637696 90.638916 143.461914 90.9636247 143.286132 91.2456043 143.044435 91.4848633 142.736816L92.444336 143.652344C92.3173822 143.842774 92.1599131 144.027099 91.9719238 144.205322 91.7839346 144.383546 91.5642103 144.542236 91.3127442 144.681396 91.0612781 144.820557 90.7768571 144.932861 90.4594727 145.018311 90.1420883 145.10376 89.7856465 145.146484 89.3901367 145.146484zM89.1777344 138.356934C88.6894507 138.356934 88.2951675 138.52783 87.9948731 138.869629 87.6945786 139.211427 87.5029301 139.687497 87.4199219 140.297852L90.8110352 140.297852 90.8110352 140.166016C90.7963867 139.931639 90.7585452 139.705812 90.6975098 139.488525 90.6364743 139.271239 90.5424811 139.07837 90.4155274 138.909912 90.2885736 138.741454 90.1237803 138.607178 89.9211426 138.50708 89.7185049 138.406982 89.4707046 138.356934 89.1777344 138.356934zM98.5916016 142.84668C98.5916016 142.719726 98.5708498 142.601319 98.5293457 142.491455 98.4878416 142.381591 98.4060553 142.279053 98.2839844 142.183838 98.1619135 142.088623 97.9897961 141.999512 97.767627 141.916504 97.5454579 141.833496 97.2561541 141.755371 96.899707 141.682129 96.4749002 141.594238 96.0879412 141.484376 95.7388184 141.352539 95.3896955 141.220702 95.0906263 141.060792 94.8416016 140.872803 94.5925769 140.684814 94.398487 140.463868 94.2593262 140.209961 94.1201653 139.956053 94.050586 139.663088 94.050586 139.331055 94.050586 139.008787 94.121386 138.702394 94.2629883 138.411865 94.4045906 138.121336 94.608446 137.866212 94.8745606 137.646484 95.1406752 137.426757 95.4629376 137.252198 95.8413574 137.122803 96.2197773 136.993408 96.643357 136.928711 97.1121094 136.928711 97.6052759 136.928711 98.0483867 136.993408 98.4414551 137.122803 98.8345235 137.252198 99.1677721 137.430419 99.441211 137.657471 99.7146498 137.884523 99.923388 138.151854 100.067432 138.459473 100.211475 138.767091 100.283496 139.099119 100.283496 139.455566L98.503711 139.455566C98.503711 139.304198 98.4744144 139.156495 98.4158203 139.012451 98.3572263 138.868407 98.2693365 138.740235 98.1521485 138.62793 98.0349604 138.515624 97.8896982 138.426514 97.7163574 138.360596 97.5430167 138.294677 97.3416027 138.261719 97.1121094 138.261719 96.8874989 138.261719 96.6921883 138.289795 96.5261719 138.345947 96.3601554 138.4021 96.2222174 138.475341 96.1123535 138.565674 96.0024897 138.656006 95.9207034 138.760986 95.8669922 138.880615 95.813281 139.000245 95.7864258 139.125976 95.7864258 139.257812 95.7864258 139.389649 95.8108396 139.506835 95.859668 139.609375 95.9084964 139.711915 95.9951654 139.804687 96.1196778 139.887695 96.2441901 139.970704 96.4114247 140.047607 96.6213867 140.118408 96.8313487 140.189209 97.095018 140.258789 97.4124024 140.327148 97.871389 140.424805 98.2827619 140.53955 98.6465332 140.671387 99.0103046 140.803223 99.3179187 140.964355 99.5693848 141.154785 99.8208509 141.345216 100.012499 141.569823 100.144336 141.828613 100.276173 142.087404 100.34209 142.395018 100.34209 142.751465 100.34209 143.103029 100.266407 143.425292 100.115039 143.718262 99.9636711 144.011232 99.7476088 144.263915 99.4668457 144.476318 99.1860826 144.688722 98.8479512 144.853515 98.4524414 144.970703 98.0569316 145.087891 97.6174829 145.146484 97.134082 145.146484 96.5920872 145.146484 96.1123556 145.069581 95.6948731 144.915771 95.2773905 144.761962 94.9270522 144.560548 94.6438477 144.311523 94.3606431 144.062499 94.1470222 143.780519 94.0029785 143.465576 93.8589348 143.150633 93.7869141 142.829591 93.7869141 142.502441L95.5154297 142.502441C95.5300782 142.746583 95.58623 142.951659 95.6838867 143.117676 95.7815435 143.283692 95.9060539 143.417968 96.0574219 143.520508 96.2087898 143.623047 96.3796866 143.69751 96.5701172 143.743896 96.7605478 143.790283 96.9558584 143.813477 97.1560547 143.813477 97.624807 143.813477 97.9812488 143.724366 98.2253906 143.546143 98.4695325 143.367919 98.5916016 143.134767 98.5916016 142.84668z"/>
  </g>
</svg>
